<?xml version="1.0" encoding="utf-8"?>
<!-- Generator: Adobe Illustrator 24.1.1, SVG Export Plug-In . SVG Version: 6.00 Build 0)  -->
<svg version="1.1" id="Layer_1" xmlns="http://www.w3.org/2000/svg" xmlns:xlink="http://www.w3.org/1999/xlink" x="0px" y="0px"
	 width="300px" height="300px" viewBox="0 0 300 300" style="enable-background:new 0 0 300 300;" xml:space="preserve">
<style type="text/css">
	.st0{fill:#FFFFFF;}
	.st1{fill:#03234B;}
</style>
<g>
	<g>
		<g>
			<path class="st0" d="M150,300c82.9,0,150-67.2,150-150C300,67.2,232.8,0,150,0C67.2,0,0,67.2,0,150C0,232.8,67.2,300,150,300"/>
		</g>
	</g>
	<g>
		<g>
			<polygon class="st1" points="147.9,118.9 165.8,71.6 120.6,138.8 146.6,134.3 129,179.8 179.4,113.7 			"/>
		</g>
	</g>
	<g>
		<g>
			<g>
				<g>
					<path class="st1" d="M197.2,164.2c-0.6,0-1.2-0.2-1.8-0.5c-1.7-1-2.3-3.1-1.3-4.8c0.8-1.4,19.4-34.4-3.1-65.2
						c-1.2-1.6-0.8-3.8,0.8-5c1.6-1.2,3.8-0.8,5,0.8c25.2,34.6,3.7,72.5,3.5,72.9C199.6,163.6,198.4,164.2,197.2,164.2z"/>
				</g>
			</g>
			<g>
				<g>
					<path class="st1" d="M210.3,181.3c-0.7,0-1.4-0.2-2-0.6c-1.6-1.1-2-3.3-0.9-4.9c1.4-2.1,34.8-52.4-5.2-99.3
						c-1.3-1.5-1.1-3.7,0.4-5c1.5-1.3,3.7-1.1,5,0.4c43.6,51,6.1,107.3,5.7,107.9C212.6,180.7,211.5,181.3,210.3,181.3z"/>
				</g>
			</g>
			<g>
				<g>
					<path class="st1" d="M224.1,196c-0.7,0-1.4-0.2-2.1-0.7c-1.6-1.1-1.9-3.4-0.8-5c2-2.8,48.2-68.1-7.1-129
						c-1.3-1.4-1.2-3.7,0.2-5c1.4-1.3,3.7-1.2,5,0.2c59.2,65.2,8.1,137.2,7.6,137.9C226.3,195.5,225.2,196,224.1,196z"/>
				</g>
			</g>
		</g>
	</g>
	<g>
		<g>
			<g>
				<g>
					<path class="st1" d="M102.8,164.2c-1.2,0-2.4-0.6-3.1-1.8c-0.2-0.4-21.7-38.3,3.5-72.9c1.2-1.6,3.4-1.9,5-0.8
						c1.6,1.2,1.9,3.4,0.8,5c-22.5,30.8-3.9,63.8-3.1,65.2c1,1.7,0.4,3.9-1.3,4.8C104,164.1,103.4,164.2,102.8,164.2z"/>
				</g>
			</g>
			<g>
				<g>
					<path class="st1" d="M89.7,181.3c-1.1,0-2.2-0.5-2.9-1.5c-0.4-0.6-37.9-56.8,5.7-107.9c1.3-1.5,3.5-1.7,5-0.4
						c1.5,1.3,1.7,3.5,0.4,5c-40,46.9-6.7,97.1-5.2,99.3c1.1,1.6,0.7,3.8-0.9,4.9C91.1,181.1,90.3,181.3,89.7,181.3z"/>
				</g>
			</g>
			<g>
				<g>
					<path class="st1" d="M75.9,196c-1.1,0-2.2-0.5-2.9-1.5c-0.5-0.7-51.6-72.7,7.6-137.9c1.3-1.4,3.6-1.5,5-0.2s1.5,3.6,0.2,5
						c-55.3,61-7.6,128.3-7.1,129c1.1,1.6,0.8,3.8-0.8,5C77.4,195.8,76.7,196,75.9,196z"/>
				</g>
			</g>
		</g>
	</g>
	<g>
		<path class="st1" d="M82,227.5c0-5.7-2.6-9.1-8.2-9.1c-5.6,0-8.7,3.7-8.7,8.2c0,13.7,22.2,6.2,22.2,22.3c0,8.9-5.5,13.4-13.9,13.4
			c-8.6,0-13.4-4.6-13.4-13.6v-1.4h4.1v1.7c0,5.9,3.1,9.8,9.1,9.8c5.8,0,9.9-2.9,9.9-9.3c0-13.6-22.2-5.9-22.2-22.5
			c0-7.2,4.7-12.1,12.7-12.1c8.5,0,12.5,4.4,12.5,12.5C86.1,227.5,82,227.5,82,227.5z"/>
		<path class="st1" d="M101.3,219.2H89.5v-3.5h27.7v3.5h-11.8v42.4h-4.1V219.2z"/>
		<path class="st1" d="M118.2,215.7h8.9l5.1,33.9h0.1l5.4-33.9h8.9l5.4,33.9h0.1l5.1-33.9h8.9l-8.4,45.8h-10.4l-5.1-33.3H142
			l-5.1,33.3h-10.4L118.2,215.7z"/>
		<path class="st1" d="M169.7,261.6v-45.8h9.3V254h16.4v7.6L169.7,261.6L169.7,261.6z"/>
		<path class="st1" d="M219.1,231.2c0-6.7-1.4-9.6-5.5-9.6c-4.7,0-5.8,4.7-5.8,17.7c0,13.9,1.9,16.4,5.9,16.4
			c3.3,0,5.8-1.7,5.8-11.6h9.3c0,9.9-2.5,18.4-14.6,18.4c-13.9,0-15.6-9.9-15.6-23.9c0-13.9,1.7-23.9,15.6-23.9
			c13.2,0,14.2,9.7,14.2,16.4L219.1,231.2L219.1,231.2z"/>
	</g>
</g>
</svg>
