<?xml version="1.0" encoding="utf-8"?>
<!-- Generator: Adobe Illustrator 24.1.1, SVG Export Plug-In . SVG Version: 6.00 Build 0)  -->
<svg version="1.1" id="Layer_1" xmlns="http://www.w3.org/2000/svg" xmlns:xlink="http://www.w3.org/1999/xlink" x="0px" y="0px"
	 width="300px" height="300px" viewBox="0 0 300 300" style="enable-background:new 0 0 300 300;" xml:space="preserve">
<style type="text/css">
	.st0{fill:#FFFFFF;}
	.st1{fill:#03234B;}
</style>
<g>
	<g>
		<g>
			<path class="st0" d="M150,300c82.9,0,150-67.2,150-150C300,67.2,232.8,0,150,0C67.1,0,0,67.2,0,150C0,232.8,67.1,300,150,300"/>
		</g>
	</g>
	<g>
		<g>
			<g>
				<path class="st1" d="M197.5,81.3h-8.1c0.2,9.5,2.2,19,6.2,28c2.1,4.6,4.6,8.8,7.5,12.8V87C203.3,83.9,200.7,81.3,197.5,81.3z"/>
			</g>
		</g>
		<g>
			<g>
				<path class="st1" d="M254.8,153.6c-27.7-0.2-53-16.7-64.4-41.9c-11.4-25.2-7.1-55.1,11-76c2.1-2.5,1.9-6.2-0.6-8.3
					c-2.5-2.1-6.2-1.9-8.3,0.6c-13,15.1-19.9,34.1-20.1,53.3h-54.2c-3.1,0-5.7,2.6-5.7,5.7v52.5h-5.3v-31.4c0-3.3-2.6-5.9-5.9-5.9
					H79c-3.3,0-5.9,2.6-5.9,5.9v31.4h-9.8v-31.4c0-3.3-2.6-5.9-5.9-5.9H41.7c-3.3,0-5.9,2.6-5.9,5.9s2.6,5.9,5.9,5.9h9.8v31.4
					c0,3.3,2.6,5.9,5.9,5.9H79c3.3,0,5.9-2.6,5.9-5.9V114h10.4v31.4c0,3.3,2.6,5.9,5.9,5.9h11.2v15.2c0,3.2,2.6,5.7,5.7,5.7h79.4
					c3.1,0,5.7-2.6,5.7-5.7v-19.5c14.3,11.5,32.4,18.3,51.4,18.5h0c3.2,0,5.9-2.6,5.9-5.9C260.6,156.3,258,153.6,254.8,153.6z"/>
			</g>
		</g>
		<g>
			<g>
				<path class="st1" d="M269.9,128.9c-20.7-0.2-39.6-12.5-48.2-31.3c-8.5-18.9-5.3-41.2,8.3-56.9c2.1-2.5,1.9-6.2-0.6-8.3
					c-2.5-2.1-6.2-1.9-8.3,0.6c-16.6,19.2-20.5,46.4-10.1,69.4c10.4,23,33.5,38.1,58.8,38.3c0,0,0,0,0,0c3.2,0,5.9-2.6,5.9-5.9
					C275.8,131.5,273.2,128.9,269.9,128.9z"/>
			</g>
		</g>
		<g>
			<g>
				<path class="st1" d="M279.7,102.2c-11.6-0.1-22.3-7-27.1-17.6c-4.8-10.6-3-23.1,4.6-31.9c2.1-2.5,1.9-6.2-0.6-8.3
					c-2.5-2.1-6.2-1.9-8.3,0.6c-10.6,12.3-13.2,29.7-6.5,44.5c6.7,14.7,21.5,24.4,37.7,24.5c0,0,0,0,0,0c3.2,0,5.9-2.6,5.9-5.8
					C285.5,104.9,282.9,102.3,279.7,102.2z"/>
			</g>
		</g>
	</g>
	<g>
		<path class="st1" d="M71.8,241.8v1.4c0,4.3,1.2,7.1,6.1,7.1c2.8,0,5.5-1.8,5.5-5.7c0-4.2-2.1-5.7-8.2-7.8c-8.2-2.8-12-6.2-12-13.9
			c0-8.9,5.5-13.5,14.2-13.5c8.2,0,14.2,3.6,14.2,12.3v1.3h-8.9c0-4.3-1.5-6.8-5-6.8c-4.2,0-5.3,2.6-5.3,5.3c0,2.8,0.8,4.6,4.8,6.2
			l7.1,3.1c7,3,8.7,6.5,8.7,12.1c0,9.7-5.9,14.1-16,14.1c-10.5,0-14.6-4.9-14.6-13.4v-1.9H71.8z"/>
		<path class="st1" d="M124.5,210.3v7.6h-10v38.3h-9.3v-38.3h-10v-7.6H124.5z"/>
		<path class="st1" d="M128.3,224.9c0.1-8.8,4.3-14.2,12.9-14.2c6.2,0,11.8,3.7,11.8,12.3c0,5.5-1.7,9.2-7.5,14l-5,4
			c-4.8,3.9-7.3,6.9-8,11.6h20.8v3.5h-25.2c0-7.5,3.4-12.4,9.5-17.5l4.9-4.1c4.6-3.9,6.3-7,6.3-11.3c0-6-3.3-9.3-8.1-9.3
			c-5.2,0-8.1,3.5-8.4,11L128.3,224.9L128.3,224.9z"/>
		<path class="st1" d="M182.2,211.4v3.5h-16.8l-2,15.9l0.1,0.1c1.7-3.3,5.4-4.6,8.8-4.6c7,0,12,5,12,15c0,9.1-4.6,15.6-13.5,15.6
			c-7.1,0-12.1-4.4-12.1-12.4h4.1c0,5.1,2.9,9.2,8.4,9.2c5.4,0,8.9-4.5,8.9-13c0-6.3-2.8-11.2-8.9-11.2c-3.4,0-6.5,1.6-7.8,5.3h-3.9
			l2.6-23.3C162.3,211.4,182.2,211.4,182.2,211.4z"/>
	</g>
</g>
</svg>
